<mxfile host="app.diagrams.net" modified="2023-09-07T17:06:12.514Z" agent="Mozilla/5.0 (Macintosh; Intel Mac OS X 10_15_7) AppleWebKit/537.36 (KHTML, like Gecko) Chrome/116.0.0.0 Safari/537.36" etag="82PTke-_z0CWZiguf2-j" version="21.7.2" type="device">
  <diagram name="Страница — 1" id="hqCRXLt2nTn-pFonILt8">
    <mxGraphModel dx="1247" dy="618" grid="1" gridSize="10" guides="1" tooltips="1" connect="1" arrows="1" fold="1" page="1" pageScale="1" pageWidth="827" pageHeight="1169" math="0" shadow="0">
      <root>
        <mxCell id="0" />
        <mxCell id="1" parent="0" />
        <mxCell id="o7zH_zK191lZ_7UHFyVz-36" style="edgeStyle=orthogonalEdgeStyle;rounded=0;orthogonalLoop=1;jettySize=auto;html=1;exitX=0.5;exitY=0;exitDx=0;exitDy=0;entryX=0;entryY=0.25;entryDx=0;entryDy=0;" edge="1" parent="1" source="o7zH_zK191lZ_7UHFyVz-1" target="o7zH_zK191lZ_7UHFyVz-35">
          <mxGeometry relative="1" as="geometry" />
        </mxCell>
        <mxCell id="o7zH_zK191lZ_7UHFyVz-1" value="Product" style="swimlane;fontStyle=1;align=center;verticalAlign=top;childLayout=stackLayout;horizontal=1;startSize=26;horizontalStack=0;resizeParent=1;resizeParentMax=0;resizeLast=0;collapsible=1;marginBottom=0;whiteSpace=wrap;html=1;" vertex="1" parent="1">
          <mxGeometry x="30" y="90" width="160" height="52" as="geometry">
            <mxRectangle x="30" y="90" width="90" height="30" as="alternateBounds" />
          </mxGeometry>
        </mxCell>
        <mxCell id="o7zH_zK191lZ_7UHFyVz-2" value="+ id: type(int)" style="text;strokeColor=none;fillColor=none;align=left;verticalAlign=top;spacingLeft=4;spacingRight=4;overflow=hidden;rotatable=0;points=[[0,0.5],[1,0.5]];portConstraint=eastwest;whiteSpace=wrap;html=1;" vertex="1" parent="o7zH_zK191lZ_7UHFyVz-1">
          <mxGeometry y="26" width="160" height="26" as="geometry" />
        </mxCell>
        <mxCell id="o7zH_zK191lZ_7UHFyVz-6" value="+ title: type(str)" style="text;strokeColor=default;fillColor=none;align=left;verticalAlign=top;spacingLeft=4;spacingRight=4;overflow=hidden;rotatable=0;points=[[0,0.5],[1,0.5]];portConstraint=eastwest;whiteSpace=wrap;html=1;" vertex="1" parent="1">
          <mxGeometry x="30" y="142" width="160" height="26" as="geometry" />
        </mxCell>
        <mxCell id="o7zH_zK191lZ_7UHFyVz-7" value="+ price: type(int)" style="text;strokeColor=default;fillColor=none;align=left;verticalAlign=top;spacingLeft=4;spacingRight=4;overflow=hidden;rotatable=0;points=[[0,0.5],[1,0.5]];portConstraint=eastwest;whiteSpace=wrap;html=1;" vertex="1" parent="1">
          <mxGeometry x="30" y="168" width="160" height="26" as="geometry" />
        </mxCell>
        <mxCell id="o7zH_zK191lZ_7UHFyVz-8" value="+&amp;nbsp;description: type(str)" style="text;strokeColor=default;fillColor=none;align=left;verticalAlign=top;spacingLeft=4;spacingRight=4;overflow=hidden;rotatable=0;points=[[0,0.5],[1,0.5]];portConstraint=eastwest;whiteSpace=wrap;html=1;" vertex="1" parent="1">
          <mxGeometry x="30" y="194" width="160" height="26" as="geometry" />
        </mxCell>
        <mxCell id="o7zH_zK191lZ_7UHFyVz-38" style="edgeStyle=orthogonalEdgeStyle;rounded=0;orthogonalLoop=1;jettySize=auto;html=1;exitX=0.5;exitY=0;exitDx=0;exitDy=0;" edge="1" parent="1" source="o7zH_zK191lZ_7UHFyVz-20">
          <mxGeometry relative="1" as="geometry">
            <mxPoint x="400" y="350" as="targetPoint" />
          </mxGeometry>
        </mxCell>
        <mxCell id="o7zH_zK191lZ_7UHFyVz-20" value="Cart" style="swimlane;fontStyle=0;childLayout=stackLayout;horizontal=1;startSize=26;fillColor=none;horizontalStack=0;resizeParent=1;resizeParentMax=0;resizeLast=0;collapsible=1;marginBottom=0;whiteSpace=wrap;html=1;" vertex="1" parent="1">
          <mxGeometry x="220" y="90" width="150" height="104" as="geometry" />
        </mxCell>
        <mxCell id="o7zH_zK191lZ_7UHFyVz-21" value="+&amp;nbsp;items: type(array)" style="text;strokeColor=none;fillColor=none;align=left;verticalAlign=top;spacingLeft=4;spacingRight=4;overflow=hidden;rotatable=0;points=[[0,0.5],[1,0.5]];portConstraint=eastwest;whiteSpace=wrap;html=1;" vertex="1" parent="o7zH_zK191lZ_7UHFyVz-20">
          <mxGeometry y="26" width="150" height="26" as="geometry" />
        </mxCell>
        <mxCell id="o7zH_zK191lZ_7UHFyVz-22" value="+ add(product)" style="text;strokeColor=default;fillColor=none;align=left;verticalAlign=top;spacingLeft=4;spacingRight=4;overflow=hidden;rotatable=0;points=[[0,0.5],[1,0.5]];portConstraint=eastwest;whiteSpace=wrap;html=1;" vertex="1" parent="o7zH_zK191lZ_7UHFyVz-20">
          <mxGeometry y="52" width="150" height="26" as="geometry" />
        </mxCell>
        <mxCell id="o7zH_zK191lZ_7UHFyVz-23" value="+&amp;nbsp;remove(productId)" style="text;strokeColor=none;fillColor=none;align=left;verticalAlign=top;spacingLeft=4;spacingRight=4;overflow=hidden;rotatable=0;points=[[0,0.5],[1,0.5]];portConstraint=eastwest;whiteSpace=wrap;html=1;" vertex="1" parent="o7zH_zK191lZ_7UHFyVz-20">
          <mxGeometry y="78" width="150" height="26" as="geometry" />
        </mxCell>
        <mxCell id="o7zH_zK191lZ_7UHFyVz-24" value="+&amp;nbsp;clear()" style="text;strokeColor=default;fillColor=none;align=left;verticalAlign=top;spacingLeft=4;spacingRight=4;overflow=hidden;rotatable=0;points=[[0,0.5],[1,0.5]];portConstraint=eastwest;whiteSpace=wrap;html=1;" vertex="1" parent="1">
          <mxGeometry x="220" y="194" width="150" height="26" as="geometry" />
        </mxCell>
        <mxCell id="o7zH_zK191lZ_7UHFyVz-25" value="+ saveToLocalStorage()" style="text;strokeColor=default;fillColor=none;align=left;verticalAlign=top;spacingLeft=4;spacingRight=4;overflow=hidden;rotatable=0;points=[[0,0.5],[1,0.5]];portConstraint=eastwest;whiteSpace=wrap;html=1;" vertex="1" parent="1">
          <mxGeometry x="220" y="220" width="150" height="26" as="geometry" />
        </mxCell>
        <mxCell id="o7zH_zK191lZ_7UHFyVz-26" value="+&amp;nbsp;loadFromLocalStorage()" style="text;strokeColor=default;fillColor=none;align=left;verticalAlign=top;spacingLeft=4;spacingRight=4;overflow=hidden;rotatable=0;points=[[0,0.5],[1,0.5]];portConstraint=eastwest;whiteSpace=wrap;html=1;" vertex="1" parent="1">
          <mxGeometry x="220" y="246" width="150" height="26" as="geometry" />
        </mxCell>
        <mxCell id="o7zH_zK191lZ_7UHFyVz-40" style="edgeStyle=orthogonalEdgeStyle;rounded=0;orthogonalLoop=1;jettySize=auto;html=1;entryX=0.878;entryY=-0.012;entryDx=0;entryDy=0;entryPerimeter=0;" edge="1" parent="1" source="o7zH_zK191lZ_7UHFyVz-31" target="o7zH_zK191lZ_7UHFyVz-35">
          <mxGeometry relative="1" as="geometry" />
        </mxCell>
        <mxCell id="o7zH_zK191lZ_7UHFyVz-31" value="Search" style="swimlane;fontStyle=0;childLayout=stackLayout;horizontal=1;startSize=26;fillColor=none;horizontalStack=0;resizeParent=1;resizeParentMax=0;resizeLast=0;collapsible=1;marginBottom=0;whiteSpace=wrap;html=1;" vertex="1" parent="1">
          <mxGeometry x="440" y="90" width="180" height="78" as="geometry" />
        </mxCell>
        <mxCell id="o7zH_zK191lZ_7UHFyVz-32" value="+&amp;nbsp;products: type(array(items))" style="text;strokeColor=default;fillColor=none;align=left;verticalAlign=top;spacingLeft=4;spacingRight=4;overflow=hidden;rotatable=0;points=[[0,0.5],[1,0.5]];portConstraint=eastwest;whiteSpace=wrap;html=1;" vertex="1" parent="o7zH_zK191lZ_7UHFyVz-31">
          <mxGeometry y="26" width="180" height="26" as="geometry" />
        </mxCell>
        <mxCell id="o7zH_zK191lZ_7UHFyVz-33" value="+&amp;nbsp;search(query)" style="text;strokeColor=none;fillColor=none;align=left;verticalAlign=top;spacingLeft=4;spacingRight=4;overflow=hidden;rotatable=0;points=[[0,0.5],[1,0.5]];portConstraint=eastwest;whiteSpace=wrap;html=1;" vertex="1" parent="o7zH_zK191lZ_7UHFyVz-31">
          <mxGeometry y="52" width="180" height="26" as="geometry" />
        </mxCell>
        <mxCell id="o7zH_zK191lZ_7UHFyVz-35" value="script.js&lt;br&gt;&lt;br&gt;lists of eventListeners&lt;br style=&quot;border-color: var(--border-color);&quot;&gt;&lt;br style=&quot;border-color: var(--border-color);&quot;&gt;??????" style="rounded=0;whiteSpace=wrap;html=1;" vertex="1" parent="1">
          <mxGeometry x="170" y="350" width="410" height="200" as="geometry" />
        </mxCell>
        <mxCell id="o7zH_zK191lZ_7UHFyVz-45" style="edgeStyle=orthogonalEdgeStyle;rounded=0;orthogonalLoop=1;jettySize=auto;html=1;entryX=1;entryY=0.5;entryDx=0;entryDy=0;" edge="1" parent="1" source="o7zH_zK191lZ_7UHFyVz-44" target="o7zH_zK191lZ_7UHFyVz-35">
          <mxGeometry relative="1" as="geometry" />
        </mxCell>
        <mxCell id="o7zH_zK191lZ_7UHFyVz-44" value="domManipulation.js&lt;br&gt;&lt;br&gt;lists of eventListeners&lt;br&gt;&lt;br&gt;??????" style="rounded=0;whiteSpace=wrap;html=1;" vertex="1" parent="1">
          <mxGeometry x="710" y="90" width="260" height="144" as="geometry" />
        </mxCell>
      </root>
    </mxGraphModel>
  </diagram>
</mxfile>
